<?xml version="1.0" encoding="utf-8"?>
<!DOCTYPE svg PUBLIC "-//W3C//DTD SVG 1.0//EN" "http://www.w3.org/TR/2001/REC-SVG-20010904/DTD/svg10.dtd">
<svg version="1.0" xmlns="http://www.w3.org/2000/svg" width="640px" height="640px" viewBox="0 0 640 640" preserveAspectRatio="xMidYMid meet">
 <g fill="#03276e">
  <path d="M271.06 459.75 c-5.94 -1.69 -7.50 -4.38 -14.06 -25.06 -5.31 -16.88 -5.38 -17.19 -4.25 -18.75 0.81 -1.13 1.75 -1.25 8.31 -1.44 5.50 -0.13 7.69 0 8.50 0.63 0.81 0.63 2.25 4.88 4.56 13.63 1.88 7 3.75 13.25 4.06 13.88 1.56 2.88 2.69 0.19 7.19 -16.56 1.31 -4.81 2.88 -9.38 3.56 -10.19 1.13 -1.44 1.50 -1.50 8.50 -1.50 6.38 0 7.50 0.19 8.38 1.13 0.63 0.63 1.06 1.56 1.06 2.06 0 1.75 -9.44 31.44 -11.06 34.56 -1.88 3.81 -3.56 5.75 -6.13 7.13 -2.56 1.31 -14.50 1.69 -18.63 0.50z"/>
  <path d="M206 459.38 c-1 -0.31 -2.50 -1.19 -3.38 -2 -3.13 -2.94 -3.25 -3.81 -3.25 -27.19 0 -31.50 -1.81 -29.50 26.63 -29.56 22.13 0 20.88 -0.44 20.88 6.81 0 3.94 -0.19 4.69 -1.56 6 -1.50 1.56 -1.56 1.56 -14.06 1.56 l-12.50 0 0 4.06 0 4.06 10.88 0 c10.56 0 10.94 0.06 11.88 1.38 1.50 2.13 1.38 9.31 -0.19 11.19 -1.19 1.44 -1.38 1.50 -10.06 1.31 -4.88 -0.13 -9.69 0 -10.69 0.19 -1.88 0.44 -1.88 0.44 -1.69 4.25 l0.19 3.88 13.25 0.19 13.25 0.13 1.25 1.69 c1.88 2.31 1.88 8.69 0 11.06 l-1.25 1.63 -18.88 -0.06 c-10.38 0 -19.69 -0.31 -20.69 -0.56z"/>
  <path d="M315 458.75 c-1.19 -1.19 -1.25 -2.06 -1.25 -21.44 0 -24.50 -0.88 -22.50 9.63 -22.81 10.44 -0.38 9.75 -1.94 9.75 22.94 0 16.88 -0.13 20 -1 21.19 -0.88 1.31 -1.38 1.38 -8.44 1.38 -6.63 0 -7.56 -0.13 -8.69 -1.25z"/>
  <path d="M341.63 458.81 c-1 -1.06 -1.06 -2.69 -0.88 -17 0.19 -14.88 0.25 -16.06 1.56 -18.38 3.75 -6.94 11.75 -10.13 24.19 -9.56 4.13 0.13 5.81 0.56 8.88 2.06 3.81 1.88 3.81 1.88 5.75 0.75 3.31 -1.94 8.25 -2.94 14.69 -2.94 9.88 0 15.44 2.63 18.94 8.88 l1.81 3.31 0.19 15.81 c0.25 19.63 0.94 18.25 -9 18.25 -5.56 0 -7.25 -0.19 -8 -1 -0.81 -0.81 -1 -2.88 -1 -12.94 0 -6.63 -0.31 -13 -0.63 -14.25 -1.06 -3.81 -5.75 -4.81 -8.75 -1.81 -1.19 1.19 -1.25 2.13 -1.25 14.38 0 16.50 0.56 15.63 -9.63 15.63 -9.63 0 -9.13 0.88 -9.13 -15.63 0 -14.06 -0.25 -15.19 -3.63 -15.94 -1.94 -0.38 -5.13 0.56 -5.88 1.75 -0.25 0.44 -0.50 6.50 -0.50 13.56 0 9.06 -0.25 13.25 -0.81 14.38 -0.75 1.50 -1 1.56 -8.31 1.75 -6.75 0.13 -7.63 0.06 -8.63 -1.06z"/>
  <path d="M294.38 375.88 c-4.88 -0.63 -17.75 -3.50 -22.31 -5 -16.56 -5.56 -33.06 -15.56 -46.63 -28.38 -7.13 -6.69 -7 -6.88 4.88 -6.88 9.63 0 16.06 -0.94 23.19 -3.38 12.75 -4.31 19.63 -10.13 39.88 -33.75 15.06 -17.50 20.25 -21.25 30.69 -22.06 5.94 -0.44 9.44 0.63 21.69 6.75 15.94 8 23.81 9.94 31.44 7.75 10.19 -2.81 14.88 -10.44 17.81 -28.69 2.25 -14.13 2.69 -24.69 2.44 -58.50 -0.13 -17.69 -0.25 -36.81 -0.25 -42.50 0 -13.69 0.81 -15.63 6.44 -15.63 6.19 0 9.50 7.19 11.81 25.75 1.31 11.13 1.31 38.94 -0.06 55.19 -5.56 65.06 -20.56 105.38 -47.38 127.63 -9.06 7.50 -11.88 9.31 -20.81 13.56 -11.94 5.63 -22.69 7.88 -38.75 8.19 -6.50 0.13 -12.88 0.06 -14.06 -0.06z"/>
 </g>
 <g fill="#ee1b1d">
  <path d="M320.50 410 c-4.94 -1.50 -7.06 -4.88 -6.63 -10.44 0.25 -3.06 0.56 -3.75 2.56 -5.63 2.13 -1.94 2.56 -2.06 6.75 -2.06 4.94 0 7.31 1.19 9 4.38 1.19 2.31 1.19 7.06 0 9.44 -2 3.81 -7.06 5.69 -11.69 4.31z"/>
  <path d="M218.63 327.50 c-7.25 -0.81 -14.06 -2.25 -15.88 -3.44 -3.31 -2.13 -3.69 -4 -3.69 -17.19 0 -13.75 0.69 -17.50 4.50 -25.56 5.25 -11.13 15.69 -17.56 28.25 -17.56 6.69 0 9.63 0.94 19.44 6.13 3.94 2.13 9.88 4.69 13.13 5.81 5.13 1.75 6.81 2 12.50 2.06 8.81 0.06 13.06 -1.50 18.50 -6.81 6 -5.88 6.81 -8.44 6.81 -22.50 0 -12.06 -0.75 -17.31 -3.81 -26.56 -2.38 -7.13 -8.81 -20 -14.50 -29.06 -13.94 -22.19 -16.63 -33.63 -9.44 -40.44 3.69 -3.50 7.75 -4.50 18.38 -4.50 9.69 0 11.13 0.25 29.69 5.25 14.25 3.81 21.13 5.25 31.56 6.50 9.63 1.19 23.88 2.25 30.06 2.25 l4.44 0 0.38 7.06 c0.75 12.38 0.63 13.44 -1.38 16 -2 2.56 -4.44 7.13 -4.44 8.31 0 0.56 -0.81 0.75 -2.81 0.63 -2.81 -0.25 -2.81 -0.31 -5.13 -4.69 -3.63 -6.94 -13.94 -16.88 -15.69 -15.13 -0.69 0.63 4.13 9.25 7.44 13.38 1.69 2 4.38 4.50 6 5.50 l3 1.88 0.13 4.69 0.06 4.75 -2.75 1.31 c-3.69 1.88 -8 6.81 -10.56 12.25 -3.44 7.06 -2.88 7.56 3.50 2.88 3 -2.25 5.06 -4.44 7.81 -8.56 l3.69 -5.56 2.69 0 2.75 0 1.56 3.69 c0.81 2 2.19 4.75 3.06 6.06 1.44 2.31 1.50 2.94 1.50 12.13 0 9.06 -0.13 9.88 -1.56 12.69 -0.81 1.63 -1.81 3.69 -2.13 4.69 -0.56 1.50 -1 1.69 -3.38 1.69 -2.69 0 -2.75 -0.06 -4.06 -3.25 -2.06 -4.88 -7.25 -11.44 -11.88 -14.94 -4.38 -3.31 -5.13 -3.63 -5.13 -2.13 0 3.56 9.13 16.19 14 19.38 2.81 1.88 2.88 1.88 2.88 5.44 0 1.94 0.19 3.94 0.38 4.50 0.25 0.63 -0.56 1.38 -2.75 2.50 -4.06 2.06 -7.50 6.06 -10.94 12.69 l-2.81 5.38 -1.88 -3.81 c-3.88 -7.75 -8.06 -12.50 -13.88 -15.69 l-3.38 -1.88 -0.13 -5.06 -0.06 -5.06 2.44 -1.25 c4.88 -2.50 10.56 -9.25 13.31 -15.69 0.88 -2.25 0.88 -2.38 -0.19 -2.38 -0.69 0 -3.19 1.44 -5.63 3.13 -4.44 3.13 -8.25 7.44 -10.69 12.19 l-1.25 2.50 -4.88 -0.19 -4.88 -0.25 -1.56 -2.50 c-4.06 -6.63 -21.69 -18.56 -25.31 -17.13 -0.94 0.31 -0.94 0.56 0.13 2.31 3.88 6.63 15 15.69 21.75 17.81 l3.44 1.13 0 3.88 c0 2.13 0.19 4.31 0.38 4.88 0.25 0.69 -0.31 1.13 -2.38 1.63 -6.81 1.81 -15.25 8.25 -19.88 15.19 -1.44 2.13 -4.88 5.94 -7.63 8.50 -2.75 2.56 -8.56 8.75 -12.88 13.75 -13.13 15.19 -18.31 20.56 -23 24.19 -5.56 4.31 -12.19 7.50 -18.69 9.06 -5.94 1.44 -18.69 2 -26.69 1.19z m138.50 -109.38 c-3.31 -6.44 -8.81 -12.56 -13.44 -15 l-2.88 -1.44 0.13 -5 0.13 -4.94 4 -2.13 c2.19 -1.19 4.94 -3.19 6.06 -4.44 2.38 -2.75 7 -10.19 7 -11.31 0 -1.38 -2.06 -0.75 -6.63 2.06 -4.81 3 -9.56 7.81 -11.50 11.56 l-1.13 2.25 -5.06 -0.06 -5 -0.13 -2.50 -3.69 c-3.75 -5.50 -10 -10.50 -18.63 -14.88 -4.38 -2.19 -6.44 -2.75 -6.44 -1.75 0 0.63 2.88 4.81 5.50 8.13 3.31 4.06 9.50 8.63 15.38 11.38 l5.25 2.50 0.25 4.75 c0.19 5.13 -0.13 5.88 -2.63 5.88 -4.75 0 -15.13 7.88 -19.94 15.06 -4 6 -3.63 6.19 4.63 2.06 7.75 -3.88 13.56 -8.31 16.69 -12.81 l2.63 -3.69 4.81 0 4.81 0 2.25 3.94 c1.19 2.13 3.50 5.38 5.13 7.19 2.94 3.38 11.75 10.06 13.25 10.13 0.50 0 -0.31 -2.13 -2.13 -5.63z"/>
  <path d="M366.25 283.06 c-3.94 -0.75 -8.31 -2.63 -18.44 -7.81 -10.50 -5.44 -15.75 -7.13 -21.75 -7.13 l-4.38 0 4 -4.19 c2.19 -2.38 4.44 -4.88 4.94 -5.69 0.88 -1.38 1.19 -1.44 5.63 -1 l4.75 0.38 2.13 3.75 c2.75 4.69 11.06 12.75 15.75 15.19 l3.56 1.81 4.38 -3 c4.81 -3.25 9.25 -8.31 11.50 -13 1.31 -2.81 1.50 -2.94 4 -3 2.50 0 2.75 0.19 3.63 2.25 0.81 2 0.81 2.69 0 6.38 -2.06 8.75 -5.25 13.25 -10.56 14.81 -3.44 1 -4.94 1.06 -9.13 0.25z"/>
  <path d="M387.06 206.94 l-2.69 -2.31 0 -4.44 c0 -4.25 0.13 -4.56 1.81 -5.75 1 -0.75 2.13 -1.31 2.44 -1.31 0.88 0 1.50 5.56 1.25 11.31 l-0.19 4.81 -2.63 -2.31z"/>
 </g>
 <g fill="#020201">
  <path d="M198.75 485 c0 -11.44 0.50 -13.25 4.06 -14.75 4.06 -1.69 8.19 -0.63 7.69 2 -0.19 0.94 -0.75 1.19 -3.19 1.25 -3.19 0.06 -3.94 0.50 -4.31 2.44 -0.19 1.13 0.19 1.25 3.13 1.44 3.13 0.19 3.25 0.25 3.25 2.06 0 1.75 -0.06 1.81 -3.06 1.81 -3.75 0 -3.81 0.13 -3.81 7.88 l0 5.88 -1.88 0 -1.88 0 0 -10z"/>
  <path d="M224.69 492.94 l-2.19 -2.19 0 -6.94 0 -6.94 1.88 0 1.88 0 0 5.38 c0 6.94 1 9 4.44 9 3 0 4 -2 4.19 -8.50 l0.25 -5.88 1.81 0 1.81 0 0 5.50 c0 3 0.19 6.94 0.44 8.75 l0.38 3.25 -2.75 0 c-1.50 0 -4.38 0.13 -6.38 0.38 -3.44 0.38 -3.63 0.31 -5.75 -1.81z"/>
  <path d="M252.50 486 l0 -9.13 1.56 0 c0.81 0 1.75 0.44 2.06 1 0.56 1 0.69 1 2.06 0 0.81 -0.56 2.25 -1 3.19 -1 1.50 0 1.75 0.25 1.75 1.81 0 1.56 -0.25 1.81 -2.44 2.19 -1.38 0.19 -2.69 0.75 -3 1.19 -0.25 0.38 -0.63 3.44 -0.81 6.69 l-0.31 5.94 -2 0.19 -2.06 0.19 0 -9.06z"/>
  <path d="M275.63 486.25 c0 -7.56 0.13 -8.81 1 -9.19 0.63 -0.25 1.38 0.06 1.88 0.69 0.75 1.06 0.88 1.06 2.25 0.13 2.88 -2 8.94 -0.75 10.56 2.25 0.38 0.69 0.88 4.19 1.06 7.69 0.31 6.88 0.06 7.63 -2.75 6.94 -1.44 -0.38 -1.50 -0.56 -1.50 -6 0 -4.81 -0.19 -5.81 -1.25 -6.88 -1.56 -1.56 -3.81 -1.63 -5.69 -0.06 -1.38 1.06 -1.50 1.81 -1.69 7.19 l-0.25 6 -1.81 0 -1.81 0 0 -8.75z"/>
  <path d="M306.25 486.25 l0 -8.75 1.88 0 1.88 0 0 8.75 0 8.75 -1.88 0 -1.88 0 0 -8.75z"/>
  <path d="M328.06 494.06 c-2.13 -1.19 -3.06 -3.88 -3.06 -8.81 0 -3.56 -0.13 -4 -1.25 -4 -1 0 -1.25 -0.44 -1.25 -1.88 0 -1.44 0.25 -1.88 1.25 -1.88 1 0 1.25 -0.44 1.25 -2.19 0 -2.06 0.13 -2.19 2.19 -2.19 2 0 2.19 0.19 2.19 1.81 0 2 0.88 2.56 4.13 2.56 1.94 0 2.13 0.19 2.13 1.81 0 1.75 -0.13 1.88 -2.94 2.06 l-3 0.19 -0.19 3.56 c-0.25 5 0.50 6.25 3.81 6 2.13 -0.13 2.63 0 2.81 1 0.56 2.63 -4.63 3.81 -8.06 1.94z"/>
  <path d="M350.88 492.88 l-2.13 -2.13 0 -7 0 -6.94 1.75 0.19 c1.69 0.19 1.69 0.19 2 6.06 0.31 5.50 0.44 5.94 2 7.13 1.44 1.06 2.06 1.19 3.44 0.69 2.50 -0.88 3.31 -3 3.31 -8.81 0 -5.38 0.25 -5.75 2.75 -4.81 0.88 0.31 1 1.75 1 9.06 l0 8.69 -1.56 0 c-0.88 0 -1.75 -0.44 -1.94 -0.94 -0.31 -0.81 -0.50 -0.81 -1.69 0 -0.75 0.50 -2.56 0.94 -4.06 0.94 -2.31 0 -3.13 -0.38 -4.88 -2.13z"/>
  <path d="M379.19 494.56 c-0.25 -0.19 -0.44 -4.31 -0.44 -9.06 l0 -8.63 1.56 0 c1.06 0 1.75 0.44 2.06 1.31 0.44 1.19 0.56 1.19 1.31 0.31 0.50 -0.63 1.81 -1 3.31 -1 2.31 0 2.44 0.13 2.25 1.75 -0.13 1.38 -0.50 1.75 -2.13 1.88 -3.38 0.31 -4.31 2 -4.50 8.31 -0.25 5.25 -0.31 5.56 -1.63 5.56 -0.81 0 -1.63 -0.19 -1.81 -0.44z"/>
  <path d="M404.56 493.75 c-5.50 -3.31 -6 -10.63 -1.06 -15 5.13 -4.50 14 -0.69 14 6.13 l0 2 -6.19 0 c-3.44 0 -6.44 0.25 -6.63 0.63 -0.19 0.31 0.31 1.31 1.19 2.19 1.75 1.75 3.81 2 7 0.81 1.63 -0.56 2.25 -0.56 3 0.06 1.44 1.19 1.25 1.81 -1 3.19 -2.75 1.63 -7.63 1.69 -10.31 0z m8.56 -10.44 c0 -0.19 -0.44 -0.94 -1.06 -1.56 -1.50 -1.69 -4.69 -1.44 -6.44 0.44 l-1.44 1.56 4.44 0 c2.50 0 4.50 -0.19 4.50 -0.44z"/>
  <path d="M306.25 474.06 c-0.94 -1.13 -0.38 -3.81 1 -4.31 1.50 -0.56 3.38 0.75 3.38 2.31 0 2.69 -2.75 3.94 -4.38 2z"/>
 </g>
</svg>