<svg width="66" height="34" viewBox="0 0 66 34" fill="none" xmlns="http://www.w3.org/2000/svg">
<path d="M6.50862 19V3.16H18.5566V6.352H10.6366V9.568H16.9486V12.568H10.6366V15.808H18.8686V19H6.50862ZM27.9866 7H32.2106L27.9626 19H23.0666L18.8186 7H23.1146L25.5146 16.144L27.9866 7ZM37.7225 7V19H33.6425V7H37.7225ZM35.6825 5.608C34.8505 5.608 34.2425 5.456 33.8585 5.152C33.4905 4.832 33.3065 4.336 33.3065 3.664C33.3065 2.976 33.4905 2.48 33.8585 2.176C34.2425 1.856 34.8505 1.696 35.6825 1.696C36.5145 1.696 37.1145 1.856 37.4825 2.176C37.8665 2.48 38.0585 2.976 38.0585 3.664C38.0585 4.336 37.8665 4.832 37.4825 5.152C37.1145 5.456 36.5145 5.608 35.6825 5.608ZM40.6269 19V7H44.2749L44.3949 9.328C44.7789 8.48 45.3149 7.84 46.0029 7.408C46.7069 6.976 47.5069 6.76 48.4029 6.76C49.2669 6.76 50.0349 6.96 50.7069 7.36C51.3789 7.76 51.8669 8.352 52.1709 9.136C52.4109 8.608 52.7309 8.168 53.1309 7.816C53.5469 7.464 54.0109 7.2 54.5229 7.024C55.0509 6.848 55.5949 6.76 56.1549 6.76C56.9389 6.76 57.6349 6.92 58.2429 7.24C58.8509 7.56 59.3309 8.032 59.6829 8.656C60.0509 9.28 60.2349 10.064 60.2349 11.008V19H56.1549V11.944C56.1549 11.192 56.0029 10.664 55.6989 10.36C55.4109 10.04 55.0269 9.88 54.5469 9.88C54.1469 9.88 53.7869 9.984 53.4669 10.192C53.1629 10.384 52.9229 10.68 52.7469 11.08C52.5709 11.48 52.4829 11.984 52.4829 12.592V19H48.4029V11.944C48.4029 11.192 48.2509 10.664 47.9469 10.36C47.6429 10.04 47.2589 9.88 46.7949 9.88C46.4269 9.88 46.0829 9.976 45.7629 10.168C45.4429 10.36 45.1869 10.664 44.9949 11.08C44.8029 11.48 44.7069 12.008 44.7069 12.664V19H40.6269ZM4.112 21.288C4.44266 21.288 4.736 21.3307 4.992 21.416C5.25866 21.4907 5.46666 21.5867 5.616 21.704L5.312 22.904C5.20533 22.8293 5.07733 22.7707 4.928 22.728C4.78933 22.6853 4.624 22.664 4.432 22.664C4.016 22.664 3.68533 22.7707 3.44 22.984C3.19466 23.1973 3.072 23.5387 3.072 24.008V25.176L3.136 25.576V33H1.408V23.88C1.408 23.3253 1.52 22.856 1.744 22.472C1.968 22.088 2.28266 21.7947 2.688 21.592C3.09333 21.3893 3.568 21.288 4.112 21.288ZM5.552 25V26.344H-2.68221e-06V25H5.552ZM9.72537 33.16C9.20271 33.16 8.73337 33.064 8.31737 32.872C7.90137 32.68 7.56537 32.3707 7.30937 31.944C7.06404 31.5173 6.94137 30.968 6.94137 30.296V25H8.66937V29.864C8.66937 30.504 8.79737 30.9787 9.05337 31.288C9.32004 31.5973 9.74137 31.752 10.3174 31.752C10.584 31.752 10.8347 31.704 11.0694 31.608C11.304 31.512 11.512 31.368 11.6934 31.176C11.8854 30.9733 12.0347 30.7227 12.1414 30.424C12.248 30.1147 12.3014 29.7627 12.3014 29.368V25H14.0294V33H12.4934L12.4294 31.608C12.2587 31.9493 12.04 32.2373 11.7734 32.472C11.5174 32.7067 11.2187 32.8827 10.8774 33C10.536 33.1067 10.152 33.16 9.72537 33.16ZM16.5995 33V25H18.0875L18.2155 26.52C18.4075 25.9867 18.7008 25.576 19.0955 25.288C19.5008 24.9893 19.9915 24.84 20.5675 24.84C20.7382 24.84 20.8928 24.856 21.0315 24.888C21.1808 24.9093 21.3088 24.9573 21.4155 25.032L21.1915 26.504C21.0955 26.4613 20.9728 26.4293 20.8235 26.408C20.6848 26.376 20.4928 26.36 20.2475 26.36C19.9382 26.36 19.6342 26.4507 19.3355 26.632C19.0368 26.8133 18.7915 27.0853 18.5995 27.448C18.4182 27.8 18.3275 28.2373 18.3275 28.76V33H16.5995ZM22.9745 33V25H24.4945L24.6065 27.176L24.3825 26.968C24.5852 26.2427 24.9425 25.7093 25.4545 25.368C25.9665 25.016 26.5638 24.84 27.2465 24.84C27.7905 24.84 28.2758 24.952 28.7025 25.176C29.1292 25.3893 29.4705 25.7147 29.7265 26.152C29.9825 26.5893 30.1105 27.1387 30.1105 27.8V33H28.3825V28.312C28.3825 27.5547 28.2225 27.0213 27.9025 26.712C27.5932 26.4027 27.2038 26.248 26.7345 26.248C26.4038 26.248 26.0785 26.3333 25.7585 26.504C25.4492 26.664 25.1932 26.9253 24.9905 27.288C24.7985 27.6507 24.7025 28.1253 24.7025 28.712V33H22.9745ZM34.3275 25V33H32.5995V25H34.3275ZM33.5115 23.688C33.1275 23.688 32.8288 23.5973 32.6155 23.416C32.4128 23.224 32.3115 22.952 32.3115 22.6C32.3115 22.248 32.4128 21.9813 32.6155 21.8C32.8288 21.608 33.1275 21.512 33.5115 21.512C33.8955 21.512 34.1888 21.608 34.3915 21.8C34.5942 21.9813 34.6955 22.248 34.6955 22.6C34.6955 22.952 34.5942 23.224 34.3915 23.416C34.1888 23.5973 33.8955 23.688 33.5115 23.688ZM39.1524 22.632V30.568C39.1524 30.9733 39.2537 31.2773 39.4564 31.48C39.659 31.672 39.931 31.768 40.2724 31.768C40.5497 31.768 40.7844 31.7253 40.9764 31.64C41.179 31.544 41.3604 31.4213 41.5204 31.272L41.8724 32.488C41.627 32.7013 41.3337 32.8667 40.9924 32.984C40.651 33.1013 40.2777 33.16 39.8724 33.16C39.1684 33.16 38.5817 32.984 38.1124 32.632C37.6537 32.28 37.4244 31.688 37.4244 30.856V23.112L39.1524 22.632ZM41.7444 25V26.344H35.9684V25H41.7444ZM46.0847 33.16C45.5621 33.16 45.0927 33.064 44.6767 32.872C44.2607 32.68 43.9247 32.3707 43.6687 31.944C43.4234 31.5173 43.3007 30.968 43.3007 30.296V25H45.0287V29.864C45.0287 30.504 45.1567 30.9787 45.4127 31.288C45.6794 31.5973 46.1007 31.752 46.6767 31.752C46.9434 31.752 47.1941 31.704 47.4287 31.608C47.6634 31.512 47.8714 31.368 48.0527 31.176C48.2447 30.9733 48.3941 30.7227 48.5007 30.424C48.6074 30.1147 48.6607 29.7627 48.6607 29.368V25H50.3887V33H48.8527L48.7887 31.608C48.6181 31.9493 48.3994 32.2373 48.1327 32.472C47.8767 32.7067 47.5781 32.8827 47.2367 33C46.8954 33.1067 46.5114 33.16 46.0847 33.16ZM52.9589 33V25H54.4469L54.5749 26.52C54.7669 25.9867 55.0602 25.576 55.4549 25.288C55.8602 24.9893 56.3509 24.84 56.9269 24.84C57.0975 24.84 57.2522 24.856 57.3909 24.888C57.5402 24.9093 57.6682 24.9573 57.7749 25.032L57.5509 26.504C57.4549 26.4613 57.3322 26.4293 57.1829 26.408C57.0442 26.376 56.8522 26.36 56.6069 26.36C56.2975 26.36 55.9935 26.4507 55.6949 26.632C55.3962 26.8133 55.1509 27.0853 54.9589 27.448C54.7775 27.8 54.6869 28.2373 54.6869 28.76V33H52.9589ZM62.4919 33.16C61.7132 33.16 61.0305 32.9947 60.4439 32.664C59.8572 32.3333 59.3985 31.8587 59.0679 31.24C58.7372 30.6107 58.5719 29.864 58.5719 29C58.5719 28.1253 58.7319 27.3787 59.0519 26.76C59.3825 26.1413 59.8359 25.6667 60.4119 25.336C60.9985 25.0053 61.6599 24.84 62.3959 24.84C63.1532 24.84 63.7985 25 64.3319 25.32C64.8652 25.64 65.2705 26.0827 65.5479 26.648C65.8359 27.2027 65.9799 27.8427 65.9799 28.568C65.9799 28.7493 65.9745 28.9147 65.9639 29.064C65.9532 29.2133 65.9425 29.3413 65.9319 29.448H59.6919V28.264H65.1639L64.3159 28.52C64.3159 28.0187 64.2359 27.5973 64.0759 27.256C63.9265 26.904 63.7079 26.6373 63.4199 26.456C63.1319 26.2747 62.7905 26.184 62.3959 26.184C61.9479 26.184 61.5585 26.296 61.2279 26.52C60.9079 26.7333 60.6625 27.0533 60.4919 27.48C60.3212 27.896 60.2359 28.408 60.2359 29.016C60.2359 29.624 60.3265 30.136 60.5079 30.552C60.6892 30.968 60.9505 31.2827 61.2919 31.496C61.6332 31.7093 62.0332 31.816 62.4919 31.816C62.9825 31.816 63.3879 31.7147 63.7079 31.512C64.0279 31.2987 64.2785 31.0107 64.4599 30.648L65.8359 31.256C65.6545 31.6507 65.3985 31.992 65.0679 32.28C64.7479 32.568 64.3692 32.7867 63.9319 32.936C63.4945 33.0853 63.0145 33.16 62.4919 33.16Z" fill="#002166"/>
<ellipse cx="36.1863" cy="3" rx="4" ry="3" fill="#FF2020"/>
</svg>
