<svg width="24" height="24" viewBox="0 0 24 24" fill="none" xmlns="http://www.w3.org/2000/svg">
<path d="M23.0001 12.474C23.0001 11.5511 22.9252 10.8776 22.7631 10.1792H12.2246V14.3447H18.4105C18.2858 15.3799 17.6123 16.9388 16.1157 17.9864L16.0947 18.1258L19.4268 20.7072L19.6577 20.7302C21.7778 18.7721 23.0001 15.8912 23.0001 12.474Z" fill="#4285F4"/>
<path d="M12.2245 23.4489C15.255 23.4489 17.7992 22.4511 19.6576 20.7301L16.1156 17.9862C15.1678 18.6473 13.8956 19.1087 12.2245 19.1087C9.25625 19.1087 6.73699 17.1507 5.83895 14.4444L5.70731 14.4555L2.24255 17.137L2.19724 17.2629C4.04303 20.9295 7.83442 23.4489 12.2245 23.4489Z" fill="#34A853"/>
<path d="M5.83895 14.4444C5.602 13.746 5.46486 12.9976 5.46486 12.2244C5.46486 11.4511 5.602 10.7029 5.82649 10.0045L5.82021 9.85571L2.31203 7.13123L2.19725 7.18582C1.43651 8.70738 1 10.416 1 12.2244C1 14.0328 1.43651 15.7414 2.19725 17.2629L5.83895 14.4444Z" fill="#FBBC05"/>
<path d="M12.2245 5.34011C14.3322 5.34011 15.7539 6.25053 16.5646 7.01136L19.7324 3.91837C17.7869 2.10998 15.255 1 12.2245 1C7.83442 1 4.04303 3.51925 2.19724 7.18589L5.82648 10.0045C6.73699 7.29818 9.25625 5.34011 12.2245 5.34011Z" fill="#EB4335"/>
</svg>
